<svg xmlns="http://www.w3.org/2000/svg" viewBox="0 0 64 64" role="img" aria-label="TeamDynamix Release Notes favicon">
  <defs>
    <linearGradient id="bg" x1="0" y1="0" x2="1" y2="1">
      <stop offset="0%" stop-color="#2563eb"/>
      <stop offset="100%" stop-color="#1d4ed8"/>
    </linearGradient>
  </defs>

  <rect x="4" y="4" width="56" height="56" rx="12" fill="url(#bg)"/>

  <path d="M22 16h20a4 4 0 0 1 4 4v24a4 4 0 0 1-4 4H22a4 4 0 0 1-4-4V20a4 4 0 0 1 4-4z" fill="#ffffff" opacity="0.98"/>
  <rect x="24" y="23" width="16" height="3" rx="1.5" fill="#2563eb"/>
  <rect x="24" y="29" width="14" height="3" rx="1.5" fill="#2563eb"/>
  <rect x="24" y="35" width="11" height="3" rx="1.5" fill="#2563eb"/>

  <circle cx="45" cy="44" r="7" fill="#22c55e"/>
  <path d="M42 44.2l2 2 4-4" fill="none" stroke="#ffffff" stroke-width="2.2" stroke-linecap="round" stroke-linejoin="round"/>
</svg>
